<?xml version="1.0" encoding="UTF-8"?>
<svg width="35px" height="35px" viewBox="0 0 35 35" version="1.1" xmlns="http://www.w3.org/2000/svg" xmlns:xlink="http://www.w3.org/1999/xlink">
    <!-- Generator: Sketch 47 (45396) - http://www.bohemiancoding.com/sketch -->
    <title>icon/cajero-off</title>
    <desc>Created with Sketch.</desc>
    <defs></defs>
    <g id="Symbols" stroke="none" stroke-width="1" fill="none" fill-rule="evenodd">
        <g id="icon/cajero-off" fill-rule="nonzero" fill="#FFFFFF">
            <g id="Group-3-Copy-2" transform="translate(9.000000, 9.000000)">
                <g id="Group">
                    <path d="M16.3125,0 L1.6875,0 C0.755507812,0 0,0.755507812 0,1.6875 L0,8.4375 C0,8.74817578 0.251824219,9 0.5625,9 L3.375,9 L3.375,16.875 C3.375,17.4963164 3.87868359,18 4.5,18 L13.5,18 C14.1213164,18 14.625,17.4963164 14.625,16.875 L14.625,9 L17.4375,9 C17.7481758,9 18,8.74817578 18,8.4375 L18,1.6875 C18,0.755507812 17.2444922,0 16.3125,0 Z M13.5,16.875 L4.5,16.875 L4.5,5.625 L13.5,5.625 L13.5,16.875 Z M16.875,7.875 L14.625,7.875 L14.625,6.75 L14.7800392,6.75 C15.090715,6.75 15.3425392,6.49817578 15.3425392,6.1875 L15.3425392,5.10772206 C15.3425392,4.79704628 15.090715,4.54522206 14.7800392,4.54522206 L3.23457611,4.54522206 C2.92390033,4.54522206 2.67207611,4.79704628 2.67207611,5.10772206 L2.67207611,6.1875 C2.67207611,6.49817578 2.92390033,6.75 3.23457611,6.75 L3.375,6.75 L3.375,7.875 L1.125,7.875 L1.125,1.6875 C1.125,1.37682422 1.37682422,1.125 1.6875,1.125 L16.3125,1.125 C16.6231758,1.125 16.875,1.37682422 16.875,1.6875 L16.875,7.875 Z" id="Shape"></path>
                    <rect id="Rectangle-path" x="5.625" y="2.25" width="6.75" height="1.125" rx="0.5625"></rect>
                </g>
                <path d="M9,13.5 C10.8639492,13.5 12.375,11.9889492 12.375,10.125 C12.375,8.26105078 10.8639492,6.75 9,6.75 C7.13605078,6.75 5.625,8.26105078 5.625,10.125 C5.625,11.9889492 7.13605078,13.5 9,13.5 Z M9,7.875 C10.2426328,7.875 11.25,8.88236719 11.25,10.125 C11.25,11.3676328 10.2426328,12.375 9,12.375 C7.75736719,12.375 6.75,11.3676328 6.75,10.125 C6.75,8.88236719 7.75736719,7.875 9,7.875 Z" id="Shape"></path>
                <rect id="Rectangle-path" x="8.4375" y="14.625" width="1.125" height="1.125" rx="0.5625"></rect>
            </g>
        </g>
    </g>
</svg>