<?xml version="1.0" encoding="UTF-8"?>
<svg width="35px" height="35px" viewBox="0 0 35 35" version="1.1" xmlns="http://www.w3.org/2000/svg" xmlns:xlink="http://www.w3.org/1999/xlink">
    <!-- Generator: Sketch 47 (45396) - http://www.bohemiancoding.com/sketch -->
    <title>icon/cajero-on</title>
    <desc>Created with Sketch.</desc>
    <defs></defs>
    <g id="Symbols" stroke="none" stroke-width="1" fill="none" fill-rule="evenodd">
        <g id="icon/cajero-on" fill="#FFFFFF">
            <path d="M13.5002,25.875 L13.5002,14.625 L22.5002,14.625 L22.5002,25.875 L13.5002,25.875 Z M18.0002,22.5 C19.8642,22.5 21.3752,20.989 21.3752,19.125 C21.3752,17.261 19.8642,15.75 18.0002,15.75 C16.1362,15.75 14.6252,17.261 14.6252,19.125 C14.6252,20.989 16.1362,22.5 18.0002,22.5 Z M18.0002,16.875 C19.2422,16.875 20.2502,17.882 20.2502,19.125 C20.2502,20.368 19.2422,21.375 18.0002,21.375 C16.7572,21.375 15.7502,20.368 15.7502,19.125 C15.7502,17.882 16.7572,16.875 18.0002,16.875 Z M18.0002,24.75 C18.3112,24.75 18.5622,24.498 18.5622,24.187 C18.5622,23.877 18.3112,23.625 18.0002,23.625 C17.6892,23.625 17.4382,23.877 17.4382,24.187 C17.4382,24.498 17.6892,24.75 18.0002,24.75 Z" id="Combined-Shape"></path>
            <path d="M25.3127,9 C26.2447,9 26.9997,9.755 26.9997,10.688 L26.9997,17.437 C26.9997,17.748 26.7487,18 26.4377,18 L23.6257,18 L23.6257,15.757 L23.8547,15.757 C24.1257,15.779 24.2867,15.664 24.3367,15.411 L24.3367,14.026 C24.3367,13.604 23.9777,13.5 23.6257,13.537 L12.4927,13.537 C12.0507,13.537 11.7767,13.7 11.6727,14.026 L11.6727,15.216 C11.7267,15.559 11.9217,15.739 12.2577,15.757 C12.2957,15.759 12.3347,15.759 12.3747,15.757 L12.3747,18 L9.5627,18 C9.2517,18 8.9997,17.748 8.9997,17.437 L8.9997,10.688 C8.9997,9.755 9.7557,9 10.6877,9 L12.0007,9 L25.3127,9 Z M20.8127,12.125 C21.1237,12.125 21.3747,11.873 21.3747,11.563 C21.3747,11.252 21.1237,11 20.8127,11 L15.1877,11 C14.8767,11 14.6257,11.252 14.6257,11.563 C14.6257,11.873 14.8767,12.125 15.1877,12.125 L20.8127,12.125 Z" id="Combined-Shape"></path>
        </g>
    </g>
</svg>