<?xml version="1.0" encoding="UTF-8"?>
<svg width="24px" height="24px" viewBox="0 0 24 24" version="1.1" xmlns="http://www.w3.org/2000/svg" xmlns:xlink="http://www.w3.org/1999/xlink">
    <!-- Generator: Sketch 47 (45396) - http://www.bohemiancoding.com/sketch -->
    <title>icon/como-llegar</title>
    <desc>Created with Sketch.</desc>
    <defs></defs>
    <g id="Symbols" stroke="none" stroke-width="1" fill="none" fill-rule="evenodd">
        <g id="icon/como-llegar" stroke="#0064B0" stroke-width="0.2" fill="#0064B0" fill-rule="nonzero">
            <path d="M14.4839817,15.8937465 C15.9016018,13.665905 17.6933638,10.5339176 17.6933638,8.92401756 C17.6933638,6.20832756 15.3627002,4 12.4965675,4 C9.63043478,4 7.29977117,6.20832756 7.29977117,8.92401756 C7.29977117,10.5339176 9.09153318,13.665905 10.5091533,15.8937465 C8.82723112,16.0140825 5,16.4466415 5,17.8809161 C5,19.2924244 8.88558352,19.9363844 12.5,19.9363844 C16.110984,19.9363844 20,19.2924244 20,17.8809161 C19.9965675,16.4466415 16.1659039,16.0140825 14.4839817,15.8937465 Z M8.01716247,8.92401756 C8.01716247,6.58234474 10.0286041,4.67648326 12.4965675,4.67648326 C14.9679634,4.67648326 16.979405,6.58234474 16.979405,8.92401756 C16.979405,10.9697289 13.5400458,16.1018952 12.4965675,17.6109732 C11.4530892,16.1018952 8.01716247,10.9697289 8.01716247,8.92401756 Z M12.4965675,19.2566489 C8.10640732,19.2566489 5.71395881,18.3459983 5.71395881,17.8776638 C5.71395881,17.5166559 7.29290618,16.7393506 10.9313501,16.5409589 C11.6144165,17.5849547 12.1327231,18.3232321 12.201373,18.4110448 C12.2940503,18.5281284 12.5652174,18.6679783 12.7951945,18.4110448 C12.8672769,18.3297367 13.382151,17.5849547 14.0652174,16.5409589 C17.7036613,16.7393506 19.2826087,17.5134035 19.2826087,17.8776638 C19.2791762,18.3492506 16.8867277,19.2566489 12.4965675,19.2566489 Z M14.7585812,8.92401756 C14.7585812,10.1078633 13.7459954,11.0672987 12.4965675,11.0672987 C11.2471396,11.0672987 10.2345538,10.1078633 10.2345538,8.92401756 C10.2345538,7.74017186 11.2471396,6.78073647 12.4965675,6.78073647 C13.7459954,6.78073647 14.7585812,7.74017186 14.7585812,8.92401756 Z M10.9485126,8.92401756 C10.9485126,9.73384607 11.6418764,10.3908154 12.4965675,10.3908154 C13.3512586,10.3908154 14.0446224,9.73384607 14.0446224,8.92401756 C14.0446224,8.11418904 13.3512586,7.45721973 12.4965675,7.45721973 C11.6418764,7.45721973 10.9485126,8.11418904 10.9485126,8.92401756 Z" id="Combined-Shape"></path>
        </g>
    </g>
</svg>