<?xml version="1.0" encoding="UTF-8"?>
<svg width="35px" height="35px" viewBox="0 0 35 35" version="1.1" xmlns="http://www.w3.org/2000/svg" xmlns:xlink="http://www.w3.org/1999/xlink">
    <!-- Generator: Sketch 47 (45396) - http://www.bohemiancoding.com/sketch -->
    <title>icon/oficina-on</title>
    <desc>Created with Sketch.</desc>
    <defs></defs>
    <g id="Symbols" stroke="none" stroke-width="1" fill="none" fill-rule="evenodd">
        <g id="icon/oficina-on" fill="#FFFFFF">
            <g id="Group" transform="translate(9.000000, 7.000000)">
                <path d="M16.6283448,18.8079221 C16.8513468,18.8079221 17.0000443,18.9565753 17,19.179533 L17,20.6662422 C17,20.8892442 16.8513468,21.0378974 16.6283448,21.0378974 L0.371655165,21.0378974 C0.14865321,21.0378974 0,20.8892442 0,20.6662422 L0,19.179533 C0,18.956531 0.14865321,18.8078778 0.371655165,18.8078778 L1.11500978,18.8078778 L1.11500978,0.371655165 C1.11500978,0.14865321 1.26366299,0 1.48666494,0 L15.3830747,0 C15.6060766,0 15.7547298,0.14865321 15.7547298,0.371655165 L15.7547298,18.8079221 L16.6283448,18.8079221 Z M14.6422754,18.8078778 L11.7213007,18.8079221 L11.7213007,14.7587371 C11.7213007,14.5357352 11.5726475,14.3870819 11.3496456,14.3870819 L8.37622713,14.3870819 L5.40280868,14.3870819 C5.17980673,14.3870819 5.03115352,14.5357352 5.03115352,14.7587371 L5.03115352,18.8079221 L2.27999197,18.8079221 L14.6422754,18.8078778 Z M7.06180239,4.68427304 L4.34376794,4.68427304 C4.12076599,4.68427304 3.97211278,4.83292625 3.97211278,5.0559282 L3.97211278,7.28599204 C3.97211278,7.50899399 4.12076599,7.6576472 4.34376794,7.6576472 L7.06184667,7.6576472 C7.28484863,7.6576472 7.43350184,7.50899399 7.43350184,7.28599204 L7.43350184,5.0559282 C7.43350184,4.83292625 7.28480435,4.68427304 7.06180239,4.68427304 Z M9.6635214,7.65769149 L12.2412387,7.6576472 C12.4642406,7.6576472 12.6128938,7.50899399 12.6128938,7.28599204 L12.6128938,5.0559282 C12.6128938,4.83292625 12.4642406,4.68427304 12.2412387,4.68427304 L9.6635214,4.68431732 C9.44051944,4.68431732 9.29186623,4.83297053 9.29186623,5.05597248 L9.29186623,7.28603632 C9.29186623,7.50899399 9.44051944,7.65769149 9.6635214,7.65769149 Z M9.6635214,11.7461197 L12.2412387,11.7460754 C12.4642406,11.7460754 12.6128938,11.5974222 12.6128938,11.3744203 L12.6128938,9.14435643 C12.6128938,8.92135447 12.4642406,8.77270126 12.2412387,8.77270126 L9.6635214,8.77274555 C9.44051944,8.77274555 9.29186623,8.92139876 9.29186623,9.14440071 L9.29186623,11.3744645 C9.29186623,11.5974222 9.44051944,11.7461197 9.6635214,11.7461197 Z M7.06180239,8.77270126 L4.34376794,8.77270126 C4.12076599,8.77270126 3.97211278,8.92135447 3.97211278,9.14435643 L3.97211278,11.3744203 C3.97211278,11.5974222 4.12076599,11.7460754 4.34376794,11.7460754 L7.06184667,11.7460754 C7.28484863,11.7460754 7.43350184,11.5974222 7.43350184,11.3744203 L7.43350184,9.14435643 C7.43350184,8.92135447 7.28480435,8.77270126 7.06180239,8.77270126 Z" id="Combined-Shape" fill-rule="nonzero"></path>
                <rect id="Rectangle" x="8" y="14" width="1" height="6"></rect>
            </g>
        </g>
    </g>
</svg>