<?xml version="1.0" encoding="UTF-8"?>
<svg width="35px" height="35px" viewBox="0 0 35 35" version="1.1" xmlns="http://www.w3.org/2000/svg" xmlns:xlink="http://www.w3.org/1999/xlink">
    <!-- Generator: Sketch 47 (45396) - http://www.bohemiancoding.com/sketch -->
    <title>icon/oficina-off</title>
    <desc>Created with Sketch.</desc>
    <defs></defs>
    <g id="Symbols" stroke="none" stroke-width="1" fill="none" fill-rule="evenodd">
        <g id="icon/oficina-off" fill-rule="nonzero" fill="#FFFFFF">
            <path d="M25.6283448,25.8079221 C25.8513468,25.8079221 26.0000443,25.9565753 26,26.179533 L26,27.6662422 C26,27.8892442 25.8513468,28.0378974 25.6283448,28.0378974 L9.37165517,28.0378974 C9.14865321,28.0378974 9,27.8892442 9,27.6662422 L9,26.179533 C9,25.956531 9.14865321,25.8078778 9.37165517,25.8078778 L10.1150098,25.8078778 L10.1150098,7.37165517 C10.1150098,7.14865321 10.263663,7 10.4866649,7 L24.3830747,7 C24.6060766,7 24.7547298,7.14865321 24.7547298,7.37165517 L24.7547298,25.8079221 L25.6283448,25.8079221 Z M11.279992,8.28879819 L11.279992,25.8079221 L14.0311535,25.8079221 L14.0311535,21.7587371 C14.0311535,21.5357352 14.1798067,21.3870819 14.4028087,21.3870819 L17.3762271,21.3870819 L20.3496456,21.3870819 C20.5726475,21.3870819 20.7213007,21.5357352 20.7213007,21.7587371 L20.7213007,25.8079221 L23.6422754,25.8078778 L23.6422754,8.2887539 L11.279992,8.28879819 Z M9.74335461,27.2946313 L25.2567339,27.2946313 L25.2567339,26.5512767 L24.1417242,26.5512767 L23.1236933,26.5512767 L20.1502749,26.5512767 L17.1768565,26.5512767 L10.8583644,26.5512767 L9.74335461,26.5512767 L9.74335461,27.2946313 Z M16.0618024,11.684273 C16.2848043,11.684273 16.4335018,11.8329262 16.4335018,12.0559282 L16.4335018,14.285992 C16.4335018,14.508994 16.2848486,14.6576472 16.0618467,14.6576472 L13.3437679,14.6576472 C13.120766,14.6576472 12.9721128,14.508994 12.9721128,14.285992 L12.9721128,12.0559282 C12.9721128,11.8329262 13.120766,11.684273 13.3437679,11.684273 L16.0618024,11.684273 Z M15.6901472,13.9143369 L15.6901472,12.4276276 L13.7154231,12.4276276 L13.7154231,13.9143369 L15.6901472,13.9143369 Z M18.6635214,14.6576915 C18.4405194,14.6576915 18.2918662,14.508994 18.2918662,14.2860363 L18.2918662,12.0559725 C18.2918662,11.8329705 18.4405194,11.6843173 18.6635214,11.6843173 L21.2412387,11.684273 C21.4642406,11.684273 21.6128938,11.8329262 21.6128938,12.0559282 L21.6128938,14.285992 C21.6128938,14.508994 21.4642406,14.6576472 21.2412387,14.6576472 L18.6635214,14.6576915 Z M19.0352208,12.4276276 L19.0352208,13.9143369 L20.8695835,13.9142926 L20.8695835,12.4275834 L19.0352208,12.4276276 Z M18.6635214,18.7461197 C18.4405194,18.7461197 18.2918662,18.5974222 18.2918662,18.3744645 L18.2918662,16.1444007 C18.2918662,15.9213988 18.4405194,15.7727455 18.6635214,15.7727455 L21.2412387,15.7727013 C21.4642406,15.7727013 21.6128938,15.9213545 21.6128938,16.1443564 L21.6128938,18.3744203 C21.6128938,18.5974222 21.4642406,18.7460754 21.2412387,18.7460754 L18.6635214,18.7461197 Z M19.0352208,16.5160559 L19.0352208,18.0027651 L20.8695835,18.0027208 L20.8695835,16.5160116 L19.0352208,16.5160559 Z M16.0618024,15.7727013 C16.2848043,15.7727013 16.4335018,15.9213545 16.4335018,16.1443564 L16.4335018,18.3744203 C16.4335018,18.5974222 16.2848486,18.7460754 16.0618467,18.7460754 L13.3437679,18.7460754 C13.120766,18.7460754 12.9721128,18.5974222 12.9721128,18.3744203 L12.9721128,16.1443564 C12.9721128,15.9213545 13.120766,15.7727013 13.3437679,15.7727013 L16.0618024,15.7727013 Z M15.6901472,18.0027651 L15.6901472,16.5160559 L13.7154231,16.5160559 L13.7154231,18.0027651 L15.6901472,18.0027651 Z M17,21.4101868 L17,26 L18,26 L18,21.4101868 L17,21.4101868 Z" id="Combined-Shape"></path>
        </g>
    </g>
</svg>